<svg width="237" height="64" viewBox="0 0 237 64" fill="none" xmlns="http://www.w3.org/2000/svg">
<path d="M30 0H55L41 64H16L30 0Z" fill="#42A5FF"/>
<path d="M26 19H70.5L65.5 45H20L26 19Z" fill="#6DDDD0"/>
<path d="M18.5 19.5H23L17.5 45H13L18.5 19.5Z" fill="#6DDDD0"/>
<path d="M12.0005 19.5H16.5005L11.0005 45H6.50051L12.0005 19.5Z" fill="#6DDDD0"/>
<path d="M5.5 19.5H10L4.5 45H0L5.5 19.5Z" fill="#6DDDD0"/>
<path d="M82.46 32.3C82.46 34.568 82.964 36.57 83.972 38.306C85.008 40.042 86.352 41.4 88.004 42.38C89.656 43.36 91.448 43.85 93.38 43.85C94.78 43.85 96.054 43.668 97.202 43.304C98.378 42.94 99.442 42.436 100.394 41.792C101.346 41.12 102.158 40.35 102.83 39.482V44.186C101.598 45.278 100.254 46.09 98.798 46.622C97.342 47.154 95.536 47.42 93.38 47.42C91.336 47.42 89.418 47.056 87.626 46.328C85.862 45.572 84.308 44.522 82.964 43.178C81.62 41.806 80.57 40.196 79.814 38.348C79.058 36.5 78.68 34.484 78.68 32.3C78.68 30.116 79.058 28.1 79.814 26.252C80.57 24.404 81.62 22.808 82.964 21.464C84.308 20.092 85.862 19.042 87.626 18.314C89.418 17.558 91.336 17.18 93.38 17.18C95.536 17.18 97.342 17.446 98.798 17.978C100.254 18.51 101.598 19.322 102.83 20.414V25.118C102.158 24.25 101.346 23.494 100.394 22.85C99.442 22.178 98.378 21.66 97.202 21.296C96.054 20.932 94.78 20.75 93.38 20.75C91.448 20.75 89.656 21.24 88.004 22.22C86.352 23.2 85.008 24.558 83.972 26.294C82.964 28.002 82.46 30.004 82.46 32.3ZM110.414 41.036C110.414 41.764 110.582 42.394 110.918 42.926C111.282 43.458 111.772 43.864 112.388 44.144C113.032 44.396 113.76 44.522 114.572 44.522C115.608 44.522 116.532 44.312 117.344 43.892C118.184 43.472 118.842 42.884 119.318 42.128C119.822 41.344 120.074 40.448 120.074 39.44L120.746 41.96C120.746 43.192 120.368 44.214 119.612 45.026C118.884 45.838 117.974 46.44 116.882 46.832C115.818 47.224 114.754 47.42 113.69 47.42C112.514 47.42 111.408 47.182 110.372 46.706C109.364 46.202 108.552 45.488 107.936 44.564C107.32 43.64 107.012 42.52 107.012 41.204C107.012 39.328 107.67 37.83 108.986 36.71C110.33 35.562 112.192 34.988 114.572 34.988C115.972 34.988 117.134 35.156 118.058 35.492C119.01 35.8 119.766 36.164 120.326 36.584C120.886 36.976 121.264 37.298 121.46 37.55V39.524C120.48 38.852 119.472 38.376 118.436 38.096C117.4 37.788 116.294 37.634 115.118 37.634C114.026 37.634 113.13 37.774 112.43 38.054C111.758 38.334 111.254 38.726 110.918 39.23C110.582 39.734 110.414 40.336 110.414 41.036ZM109.91 32.132L108.272 29.654C109 29.122 109.994 28.59 111.254 28.058C112.542 27.526 114.082 27.26 115.874 27.26C117.386 27.26 118.702 27.498 119.822 27.974C120.97 28.422 121.852 29.08 122.468 29.948C123.112 30.816 123.434 31.88 123.434 33.14V47H120.074V33.602C120.074 32.93 119.962 32.384 119.738 31.964C119.514 31.516 119.192 31.166 118.772 30.914C118.38 30.662 117.918 30.48 117.386 30.368C116.854 30.256 116.294 30.2 115.706 30.2C114.754 30.2 113.886 30.312 113.102 30.536C112.346 30.76 111.702 31.026 111.17 31.334C110.638 31.642 110.218 31.908 109.91 32.132ZM132.483 27.68V47H129.123V27.68H132.483ZM138.321 31.376C137.873 31.04 137.467 30.802 137.103 30.662C136.739 30.494 136.277 30.41 135.717 30.41C134.877 30.41 134.219 30.62 133.743 31.04C133.267 31.46 132.931 32.034 132.735 32.762C132.567 33.49 132.483 34.316 132.483 35.24H130.971C130.971 33.7 131.237 32.342 131.769 31.166C132.329 29.962 133.043 29.01 133.911 28.31C134.779 27.61 135.661 27.26 136.557 27.26C137.257 27.26 137.901 27.358 138.489 27.554C139.105 27.722 139.665 28.072 140.169 28.604L138.321 31.376ZM150.38 47.42C148.588 47.42 146.992 47 145.592 46.16C144.22 45.292 143.142 44.102 142.358 42.59C141.602 41.078 141.224 39.328 141.224 37.34C141.224 35.324 141.616 33.56 142.4 32.048C143.212 30.536 144.332 29.36 145.76 28.52C147.216 27.68 148.896 27.26 150.8 27.26C152.704 27.26 154.328 27.666 155.672 28.478C157.044 29.262 158.094 30.396 158.822 31.88C159.55 33.364 159.914 35.128 159.914 37.172C159.914 37.368 159.9 37.578 159.872 37.802C159.872 37.998 159.872 38.124 159.872 38.18H143.366V35.324H157.226L155.882 37.256C155.966 37.116 156.05 36.906 156.134 36.626C156.218 36.318 156.26 36.066 156.26 35.87C156.26 34.722 156.022 33.728 155.546 32.888C155.098 32.048 154.468 31.39 153.656 30.914C152.844 30.438 151.892 30.2 150.8 30.2C149.512 30.2 148.406 30.48 147.482 31.04C146.586 31.572 145.886 32.356 145.382 33.392C144.906 34.4 144.654 35.646 144.626 37.13C144.626 38.642 144.864 39.93 145.34 40.994C145.816 42.058 146.516 42.87 147.44 43.43C148.364 43.99 149.484 44.27 150.8 44.27C152.116 44.27 153.278 43.99 154.286 43.43C155.294 42.842 156.148 41.96 156.848 40.784L159.578 42.506C158.57 44.13 157.296 45.362 155.756 46.202C154.244 47.014 152.452 47.42 150.38 47.42ZM164.729 17.6H168.299V47H164.729V17.6ZM179.849 17.6H184.259L171.533 31.376L184.889 47H180.479L167.207 31.46L179.849 17.6ZM188.267 19.7C188.267 19.056 188.491 18.51 188.939 18.062C189.415 17.614 189.961 17.39 190.577 17.39C191.221 17.39 191.767 17.614 192.215 18.062C192.663 18.51 192.887 19.056 192.887 19.7C192.887 20.316 192.663 20.862 192.215 21.338C191.767 21.786 191.221 22.01 190.577 22.01C189.961 22.01 189.415 21.786 188.939 21.338C188.491 20.862 188.267 20.316 188.267 19.7ZM188.897 27.68H192.257V47H188.897V27.68ZM213.667 14.24H217.027V47H213.667V14.24ZM197.497 37.34C197.497 35.24 197.931 33.448 198.799 31.964C199.667 30.452 200.829 29.29 202.285 28.478C203.741 27.666 205.337 27.26 207.073 27.26C208.697 27.26 210.111 27.666 211.315 28.478C212.519 29.29 213.457 30.452 214.129 31.964C214.829 33.448 215.179 35.24 215.179 37.34C215.179 39.412 214.829 41.204 214.129 42.716C213.457 44.228 212.519 45.39 211.315 46.202C210.111 47.014 208.697 47.42 207.073 47.42C205.337 47.42 203.741 47.014 202.285 46.202C200.829 45.39 199.667 44.228 198.799 42.716C197.931 41.204 197.497 39.412 197.497 37.34ZM200.899 37.34C200.899 38.824 201.193 40.084 201.781 41.12C202.397 42.156 203.209 42.94 204.217 43.472C205.225 44.004 206.317 44.27 207.493 44.27C208.473 44.27 209.439 44.004 210.391 43.472C211.343 42.94 212.127 42.156 212.743 41.12C213.359 40.084 213.667 38.824 213.667 37.34C213.667 35.856 213.359 34.596 212.743 33.56C212.127 32.524 211.343 31.74 210.391 31.208C209.439 30.676 208.473 30.41 207.493 30.41C206.317 30.41 205.225 30.676 204.217 31.208C203.209 31.74 202.397 32.524 201.781 33.56C201.193 34.596 200.899 35.856 200.899 37.34ZM223.928 41.078C224.32 41.666 224.768 42.212 225.272 42.716C225.776 43.22 226.35 43.626 226.994 43.934C227.666 44.214 228.394 44.354 229.178 44.354C230.13 44.354 230.872 44.144 231.404 43.724C231.964 43.276 232.244 42.674 232.244 41.918C232.244 41.246 232.02 40.686 231.572 40.238C231.152 39.762 230.606 39.37 229.934 39.062C229.262 38.726 228.548 38.418 227.792 38.138C226.952 37.802 226.098 37.41 225.23 36.962C224.39 36.486 223.676 35.884 223.088 35.156C222.528 34.4 222.248 33.462 222.248 32.342C222.248 31.194 222.542 30.242 223.13 29.486C223.746 28.73 224.53 28.17 225.482 27.806C226.462 27.442 227.47 27.26 228.506 27.26C229.542 27.26 230.508 27.428 231.404 27.764C232.328 28.1 233.14 28.548 233.84 29.108C234.54 29.668 235.086 30.312 235.478 31.04L232.79 32.762C232.258 32.034 231.586 31.432 230.774 30.956C229.99 30.48 229.094 30.242 228.086 30.242C227.386 30.242 226.784 30.396 226.28 30.704C225.776 31.012 225.524 31.488 225.524 32.132C225.524 32.636 225.72 33.084 226.112 33.476C226.504 33.868 227.008 34.218 227.624 34.526C228.24 34.834 228.884 35.128 229.556 35.408C230.676 35.856 231.698 36.346 232.622 36.878C233.546 37.382 234.274 37.998 234.806 38.726C235.366 39.454 235.646 40.392 235.646 41.54C235.646 43.22 235.03 44.62 233.798 45.74C232.594 46.86 230.998 47.42 229.01 47.42C227.722 47.42 226.56 47.196 225.524 46.748C224.488 46.272 223.606 45.67 222.878 44.942C222.178 44.214 221.646 43.472 221.282 42.716L223.928 41.078Z" fill="#0086FF"/>
</svg>
